<?xml version="1.0" standalone="no"?>
<!DOCTYPE svg PUBLIC "-//W3C//DTD SVG 20010904//EN"
 "http://www.w3.org/TR/2001/REC-SVG-20010904/DTD/svg10.dtd">
<svg version="1.0" xmlns="http://www.w3.org/2000/svg"
 width="946.000000pt" height="1024.000000pt" viewBox="0 0 946.000000 1024.000000"
 preserveAspectRatio="xMidYMid meet">

<g transform="translate(0.000000,1024.000000) scale(0.100000,-0.100000)"
fill="#000000" stroke="none">
<path d="M7123 10233 l-33 -4 0 -120 0 -119 176 0 c157 0 175 2 170 16 -3 9
-6 65 -6 125 l0 109 -137 -2 c-76 0 -153 -3 -170 -5z"/>
<path d="M4575 10186 c-87 -20 -141 -43 -215 -92 -68 -44 -93 -72 -129 -141
-60 -118 -40 -331 38 -407 82 -79 190 -128 432 -195 226 -63 218 -55 175 -147
-74 -160 -258 -162 -610 -8 -55 24 -101 42 -103 40 -3 -2 37 -317 41 -323 3
-5 263 -53 341 -64 107 -14 258 -6 335 17 236 71 352 222 338 442 -14 215
-111 283 -590 412 -117 32 -118 32 -112 59 4 14 18 48 32 74 72 135 246 137
565 6 l67 -28 0 144 0 143 -33 11 c-163 54 -458 83 -572 57z"/>
<path d="M168 10100 c-1 -44 -2 -97 -2 -117 l-1 -38 141 3 141 4 7 -69 c3 -37
9 -162 12 -278 5 -170 3 -228 -10 -305 -26 -149 -29 -156 -86 -175 -56 -19
-193 -35 -297 -35 -40 0 -73 -1 -73 -3 0 -1 7 -57 15 -122 8 -66 15 -121 15
-122 0 -7 257 -1 340 7 231 24 356 113 394 277 32 145 38 245 34 650 l-3 403
-312 0 -313 0 -2 -80z"/>
<path d="M8820 10026 c0 -86 -3 -117 -14 -123 -7 -4 -44 -36 -81 -70 l-67 -63
71 -100 c39 -56 75 -109 80 -118 4 -9 11 -125 15 -257 3 -132 9 -270 12 -306
l7 -66 111 -31 c207 -58 310 -65 391 -26 48 22 84 78 91 141 l6 50 -138 12
c-77 7 -140 14 -142 16 -1 1 -12 29 -24 61 -18 50 -22 86 -26 232 -2 96 -1
194 3 218 l6 44 145 0 144 0 0 110 0 109 -147 3 -148 3 -5 135 -5 135 -142 3
-143 3 0 -115z"/>
<path d="M5735 9875 c-173 -36 -324 -149 -393 -293 l-37 -77 0 -151 0 -150 37
-76 c120 -243 452 -359 750 -262 26 9 50 19 53 24 9 15 57 262 51 267 -2 3
-77 -18 -165 -46 -87 -28 -170 -51 -183 -51 -85 0 -174 67 -208 156 -41 111
-20 285 46 372 62 81 185 84 377 8 66 -25 122 -46 126 -46 4 0 0 54 -8 121
l-14 121 -36 23 c-93 61 -265 87 -396 60z"/>
<path d="M1188 9865 c-71 -6 -130 -14 -133 -17 -3 -3 -8 -55 -12 -117 l-6
-111 29 5 c156 27 297 31 379 10 55 -15 173 -80 162 -91 -2 -2 -84 -20 -182
-39 -308 -60 -382 -95 -436 -209 -24 -51 -29 -74 -29 -138 0 -139 53 -233 162
-287 78 -39 117 -39 276 -2 l122 29 143 -14 c78 -7 159 -14 180 -14 l39 0 -5
353 c-5 440 -8 460 -86 538 -113 112 -254 137 -603 104z m378 -647 c-4 -62 -9
-120 -12 -129 -4 -13 -28 -17 -135 -23 -73 -4 -132 -6 -134 -4 -4 5 20 227 25
232 4 3 180 28 249 35 11 1 12 -19 7 -111z"/>
<path d="M2004 9869 c3 -8 35 -113 71 -234 74 -243 151 -461 222 -627 43 -102
48 -109 82 -118 69 -18 166 -39 223 -48 l56 -9 22 56 c99 252 185 486 260 709
l89 263 -155 -3 -156 -3 -20 -65 c-88 -293 -161 -526 -167 -532 -4 -4 -31 59
-60 140 -129 354 -154 414 -175 423 -12 5 -73 18 -136 29 -63 12 -125 24 -138
27 -16 4 -21 1 -18 -8z"/>
<path d="M3302 9865 c-51 -7 -94 -14 -96 -16 -6 -8 -76 -223 -73 -226 2 -1 62
4 133 13 176 22 293 16 359 -18 47 -25 103 -73 94 -82 -2 -2 -65 -13 -139 -26
-230 -37 -338 -73 -413 -140 -67 -58 -82 -100 -82 -220 0 -90 3 -112 23 -152
68 -137 269 -190 465 -124 l79 26 151 -20 c84 -11 162 -23 175 -25 l22 -5 0
332 c0 331 -11 484 -39 536 -29 54 -143 123 -243 147 -77 18 -284 18 -416 0z
m382 -607 c-3 -40 -9 -100 -13 -133 l-6 -60 -130 4 c-72 2 -132 5 -134 7 -3 3
18 207 23 211 3 4 220 41 244 42 23 1 23 0 16 -71z"/>
<path d="M6330 9370 l0 -510 149 0 149 0 6 31 c3 17 6 154 6 304 0 150 3 293
6 318 l6 45 171 7 170 7 -8 152 c-3 83 -8 153 -10 155 -2 2 -62 -17 -132 -43
-70 -25 -136 -46 -145 -46 -9 0 -91 20 -182 45 -92 25 -171 45 -176 45 -7 0
-10 -180 -10 -510z"/>
<path d="M8215 9854 c-159 -29 -381 -28 -537 3 l-28 6 0 -675 0 -675 31 -7
c17 -3 87 -6 155 -6 l124 0 0 174 0 174 163 5 c181 5 229 16 312 70 83 56 138
156 172 312 21 99 13 298 -16 379 -42 117 -102 188 -196 232 -55 26 -78 27
-180 8z m59 -276 c28 -230 25 -373 -9 -425 -24 -37 -86 -62 -194 -78 -56 -8
-103 -15 -106 -15 -8 0 -6 556 2 563 3 4 73 7 154 7 l147 0 6 -52z"/>
<path d="M7118 9610 c-3 -137 -3 -362 0 -500 l5 -250 143 0 144 0 0 500 0 500
-144 0 -143 0 -5 -250z"/>
</g>
</svg>
